<?xml version="1.0" encoding="UTF-8"?>
<svg id="Layer_2" data-name="Layer 2" xmlns="http://www.w3.org/2000/svg" width="555.35" height="298.75" viewBox="0 0 555.35 298.75">
  <g id="Layer_1-2" data-name="Layer 1">
    <g>
      <path d="M544.28,63.68c-7.23-10.85-17.24-18.76-28.95-22.86C438.34,13.74,358.38,0,277.68,0S117.02,13.74,40.02,40.82C16.08,49.25,0,73.52,0,101.22v96.32c0,13.87,3.97,27.04,11.48,38.09,7.18,10.56,17.05,18.27,28.54,22.31,77,27.08,156.96,40.81,237.66,40.81s160.66-13.73,237.66-40.81c23.93-8.44,40.01-32.71,40.01-60.4v-96.32c0-13.49-3.93-26.82-11.07-37.54ZM42.34,47.42C118.56,20.61,197.74,7,277.68,7s159.11,13.61,235.33,40.42c10.48,3.68,19.26,10.86,25.45,20.15,6.19,9.28,9.89,21.16,9.89,33.65v12.14c-67.02,13.69-134.28,21.59-202.04,28.45-103.73,9.22-235.26,17.62-339.31,24.31v-64.9c0-24.74,14.18-46.35,35.34-53.8ZM513.01,251.33c-76.22,26.81-155.4,40.42-235.33,40.42s-159.12-13.61-235.34-40.42c-10.27-3.6-18.91-10.58-25.07-19.63-6.5-9.56-10.27-21.44-10.27-34.16v-9.12c129.66-26.74,275.47-34.87,407.85-44.13,33.11-2.42,98.61-6.74,133.5-8.82v62.07c0,24.74-14.18,46.34-35.34,53.79Z"/>
      <path d="M260.43,166.91l-46.74,2.15c-4.22.17-7.65,3.36-8.2,7.52l-8.4,64.44c-.71,5.34,3.61,10,8.98,9.76l46.74-2.14c4.21-.17,7.65-3.37,8.19-7.52l8.41-64.44c.68-5.34-3.61-10.01-8.98-9.77ZM235.2,173.99c9.45-.93,17.49,2.25,17.96,7.09.48,4.84-6.79,9.52-16.23,10.45-9.44.93-17.48-2.24-17.96-7.08-.47-4.85,6.79-9.53,16.23-10.46ZM247.15,235.54c-11,10.08-26.77,10.76-35.21,1.53-8.45-9.23-6.39-24.88,4.61-34.95,11-10.08,26.77-10.77,35.22-1.54s6.38,24.89-4.62,34.96Z"/>
      <path d="M168.62,171.1l-10.75.48c-5.88.27-11.16,2.28-15.82,6.06-4.66,3.74-7.31,8.13-7.96,13.07l-.61,4.59c-.61,4.59.92,8.81,4.59,12.55l19.9,20.55c1.84,1.87,2.62,3.95,2.31,6.26-.41,2.99-1.53,5.31-3.4,6.94-1.87,1.63-4.73,2.55-8.54,2.72-2.69.1-5.07-.41-7.14-1.6-2.07-1.19-2.93-2.99-2.62-5.48.07-.37.17-.85.31-1.5l-10.75.48c-.78,6.06.41,10.48,3.61,13.37,3.2,2.89,8.33,4.15,15.44,3.84l10.75-.48c5.88-.27,11.16-2.31,15.82-6.09,4.66-3.78,7.31-8.13,7.96-13.07l.61-4.59c.61-4.59-.92-8.78-4.59-12.56l-19.86-20.62c-1.84-1.91-2.62-3.98-2.31-6.26.41-3.06,1.67-5.38,3.77-7.01,2.11-1.63,5.03-2.52,8.78-2.69,5.82-.27,8.81,2.62,8.94,8.68l10.65-.48h-.03c.68-12.04-5.65-17.79-19.05-17.18Z"/>
      <path d="M329.88,163.78l-8.3,63.73c-.34,2.45-1.67,4.63-3.98,6.5-2.31,1.87-5,2.89-7.96,3.03-2.96.14-5.38-.65-7.24-2.35-1.87-1.7-2.62-3.78-2.31-6.23l8.3-63.73-21.39.99-8.3,63.73c-.65,4.97.89,9.15,4.63,12.52,3.74,3.37,8.54,4.93,14.39,4.66l21.5-.99c5.89-.27,11.16-2.31,15.82-6.09,4.66-3.78,7.31-8.13,7.96-13.06l8.3-63.73-21.39.99v.03Z"/>
      <polygon points="425.9 204.54 372.4 161.77 367.53 162.01 356.85 243.91 367.6 243.43 373.52 197.98 426.96 240.74 431.89 240.51 442.57 158.61 431.82 159.09 425.9 204.54"/>
      <path d="M501.75,155.92l-42.89,1.94-10.68,81.9-.03.03,42.89-1.94c5.88-.27,11.15-2.31,15.81-6.09,4.66-3.77,7.32-8.13,7.96-13.06l5.96-45.56c.64-4.97-.89-9.12-4.63-12.52-3.74-3.4-8.54-4.97-14.39-4.7ZM499.4,174.13l-5.95,45.55c-.34,2.45-1.66,4.63-3.98,6.5-2.31,1.87-4.96,2.9-7.96,3.03l-10.71.48,8.3-63.63,10.75-.47c2.92-.14,5.3.64,7.21,2.31,1.87,1.67,2.65,3.74,2.34,6.23Z"/>
      <path d="M224.11,210.37c-5.57,5.1-6.62,13.03-2.34,17.7,4.27,4.67,12.25,4.32,17.82-.78,5.57-5.11,6.62-13.03,2.35-17.7-4.28-4.67-12.26-4.32-17.83.78Z"/>
      <path d="M236.44,186.59c4.1-.4,7.25-2.44,7.04-4.56-.21-2.11-3.7-3.5-7.79-3.09-4.09.4-7.24,2.44-7.04,4.55.21,2.12,3.7,3.5,7.79,3.1Z"/>
      <path d="M60.6,109.65l10.75-.48c2.92-.13,5.3.65,7.21,2.35,1.9,1.7,2.68,3.78,2.34,6.3l-3.57,27.28,21.4-.98,4.21-32.26c.34-2.48-.44-4.59-2.31-6.29-1.87-1.7-4.28-2.49-7.24-2.35l-10.65.47c7.69-.34,13.44-2.48,17.21-6.39,3.78-3.91,5.92-7.9,6.46-11.98l.65-4.93c.65-4.97-.88-9.12-4.63-12.52-3.74-3.41-8.53-4.97-14.38-4.7l-42.89,1.94-10.68,81.9-.04.03,21.4-.98,4.76-36.41ZM65.36,73.28l10.75-.48c2.92-.14,5.3.65,7.21,2.31,1.87,1.67,2.65,3.75,2.35,6.23l-1.19,9.12c-.31,2.48-1.67,4.66-4.02,6.57-2.38,1.9-5,2.92-7.92,3.06l-10.75.47,3.57-27.28Z"/>
      <polygon points="169.71 131.73 137.57 133.19 141.14 105.91 162.64 104.92 163.83 95.87 142.33 96.85 145.9 69.57 178.05 68.1 179.24 58.99 125.7 61.44 115.02 143.3 168.52 140.85 169.71 131.73"/>
      <polygon points="115.02 143.33 115.02 143.3 114.98 143.3 115.02 143.33"/>
      <path d="M211.07,102.84l21.5-.98-4.76,36.4,21.39-.98,8.3-63.73c.65-4.97-.88-9.12-4.62-12.52-3.75-3.4-8.54-4.97-14.39-4.7l-21.5.99c-5.85.24-11.12,2.28-15.78,6.02-4.69,3.74-7.35,8.13-7.99,13.1l-8.3,63.73v.07l21.39-.99,4.76-36.41ZM214.68,75.49c.31-2.49,1.63-4.66,3.98-6.53,2.35-1.88,5-2.86,7.92-3,2.93-.13,5.31.65,7.21,2.32,1.88,1.66,2.66,3.74,2.35,6.22l-2.38,18.24-21.46.99,2.38-18.24Z"/>
      <path d="M265.49,136.49l-.03.04,42.89-1.94c5.89-.27,11.16-2.31,15.82-6.09,4.66-3.78,7.31-8.13,7.96-13.07l5.95-45.56c.65-4.96-.89-9.11-4.63-12.52-3.74-3.4-8.53-4.96-14.38-4.69l-42.9,1.94-10.68,81.89ZM296.41,62.76l10.75-.47c2.93-.14,5.31.64,7.21,2.31,1.87,1.67,2.65,3.74,2.35,6.23l-5.95,45.56c-.34,2.45-1.67,4.62-3.98,6.5-2.32,1.87-4.97,2.89-7.96,3.02l-10.72.48,8.3-63.63Z"/>
      <path d="M372.19,95.46l-4.76,36.37,21.46-.99,4.76-36.41c14.45-2.04,22.38-8.44,23.77-19.16l3.57-27.29-21.4.99-3.57,27.29c-.31,2.48-1.67,4.66-4.01,6.57-2.38,1.91-4.97,2.93-7.93,3.06-2.96.14-5.37-.65-7.25-2.35-1.87-1.7-2.62-3.78-2.31-6.26l3.57-27.29-21.4.99-3.57,27.29c-1.4,10.72,4.97,16.43,19.05,17.18Z"/>
      <polygon points="367.43 131.87 367.44 131.83 367.4 131.83 367.43 131.87"/>
      <path d="M223.36,25.51c1.94,1.8,3.84,3.64,5.75,5.48.51.51.82,1.09.85,1.7.03.82-.1,1.46-.48,1.91-.37.48-.99.71-1.87.78-.65.03-1.22-.1-1.77-.41s-.82-.78-.89-1.46v-.41c-.85.07-1.67.14-2.52.2.1,1.63.65,2.86,1.53,3.61s2.18,1.05,3.81.95c.82-.07,1.67-.1,2.48-.17,1.36-.1,2.48-.65,3.4-1.7.92-1.05,1.33-2.25,1.26-3.57-.03-.41-.07-.85-.07-1.26-.1-1.23-.65-2.38-1.7-3.4-1.9-1.84-3.81-3.71-5.75-5.55-.58-.51-.85-1.09-.88-1.7-.07-.82.14-1.46.54-1.91.41-.48,1.05-.71,1.97-.78,1.4-.1,2.28.68,2.58,2.31.82-.07,1.67-.1,2.52-.17l.07.03c-.41-3.3-2.21-4.83-5.41-4.63-.88.03-1.73.1-2.58.17-1.4.1-2.58.68-3.5,1.74-.92,1.05-1.33,2.25-1.23,3.61.03.41.1.85.1,1.26.1,1.26.68,2.38,1.77,3.37Z"/>
      <path d="M250.16,36.57c-.03-.82-.1-1.67-.1-2.48-2.48.1-5,.2-7.48.34-.14-2.48-.24-4.97-.38-7.45,1.7-.1,3.37-.17,5.07-.24-.03-.85-.07-1.67-.1-2.48-1.7.07-3.37.17-5.07.24-.14-2.48-.24-4.97-.37-7.45,2.55-.14,5.1-.24,7.65-.34-.03-.82-.1-1.67-.1-2.48-4.28.17-8.54.37-12.82.61.44,7.45.89,14.9,1.29,22.35,4.15-.24,8.26-.44,12.42-.61Z"/>
      <path d="M252.74,36.57c1.67-.07,3.3-.14,4.97-.17-.07-3.3-.17-6.64-.27-9.94,1.7-.06,3.36-.1,5.07-.13.06,3.3.13,6.63.2,9.93,1.67-.03,3.3-.1,4.97-.1-.07-5.82-.14-11.6-.24-17.42-.04-1.36-.55-2.52-1.57-3.47-1.02-.95-2.24-1.4-3.64-1.4-1.7.04-3.43.11-5.13.14-1.4.04-2.62.55-3.57,1.57-.99.98-1.43,2.17-1.4,3.53.21,5.79.41,11.61.61,17.39v.07ZM257.88,17.14c.51-.51,1.12-.78,1.8-.78.72-.04,1.33.2,1.84.68s.78,1.05.78,1.73c.04,1.67.07,3.34.1,5.01-1.7.03-3.36.1-5.06.13h-.04c-.03-1.66-.1-3.33-.13-5,0-.68.23-1.26.71-1.77Z"/>
      <path d="M275.19,36.06h5.07c.03-6.6.07-13.24.07-19.87,1.7.03,3.4.03,5.1.03v-2.48c-5.14-.07-10.27-.07-15.41,0v2.48c1.7-.03,3.4-.03,5.1-.03.03,6.6.07,13.24.07,19.87Z"/>
      <path d="M292.64,36.16c1.67.03,3.33.1,5,.14.2-6.63.37-13.24.58-19.87,1.7.07,3.4.1,5.1.17.03-.82.1-1.67.1-2.48-5.14-.17-10.27-.31-15.41-.37-.03.82-.03,1.67-.03,2.48,1.7.03,3.4.07,5.1.1-.17,6.59-.31,13.21-.44,19.84Z"/>
      <path d="M292.64,36.2s0-.02,0-.03h0v.03Z"/>
      <path d="M317.61,37.18c.03-.82.1-1.67.14-2.48-2.48-.14-5-.27-7.48-.37.31-6.63.61-13.24.92-19.87-1.74-.07-3.44-.14-5.14-.2-.31,7.45-.58,14.9-.89,22.35l.03-.03c4.15.17,8.27.37,12.42.61Z"/>
      <path d="M332.74,35.72c-2.48-.2-5-.37-7.48-.54.17-2.48.34-4.97.51-7.45,1.67.14,3.33.24,5.03.37.03-.82.1-1.63.17-2.45-1.7-.14-3.37-.27-5.07-.37.17-2.48.34-4.97.51-7.45,2.55.2,5.1.37,7.65.58.07-.82.14-1.67.2-2.48-4.25-.34-8.5-.61-12.79-.88-.44,7.42-.92,14.87-1.36,22.32,4.15.24,8.26.51,12.42.85.07-.82.14-1.67.2-2.48Z"/>
      <path d="M216.32,282.87h-.03c4.25.31,8.5.61,12.75.89.07-.82.1-1.67.17-2.48-2.55-.17-5.1-.34-7.65-.51.2-2.48.38-4.97.54-7.45,1.7.1,3.37.24,5.07.34.07-.82.1-1.63.17-2.45-1.67-.1-3.37-.2-5.03-.34.2-2.48.37-4.97.54-7.45,2.52.2,5,.34,7.48.51.07-.82.14-1.67.17-2.48-4.15-.27-8.27-.54-12.42-.89-.61,7.45-1.19,14.87-1.77,22.32Z"/>
      <path d="M239.82,261.91c-.82-.03-1.67-.1-2.48-.14-1.4-.1-2.58.34-3.61,1.26-1.05.92-1.56,2.04-1.67,3.4-.03.41-.07.85-.07,1.26-.07,1.22.34,2.45,1.26,3.57,1.67,2.08,3.33,4.15,5.03,6.19.44.54.68,1.16.65,1.77-.03.82-.24,1.43-.68,1.84-.41.41-1.05.58-1.97.54-.65-.03-1.22-.24-1.73-.61s-.75-.89-.71-1.56c0-.1.03-.24.03-.41-.85-.03-1.7-.1-2.55-.14-.1,1.63.24,2.89,1.05,3.78.78.89,2.04,1.36,3.74,1.46.85.03,1.7.1,2.55.14,1.4.07,2.62-.34,3.67-1.29,1.05-.95,1.6-2.08,1.67-3.44.03-.41.07-.85.07-1.26.07-1.26-.38-2.45-1.33-3.57-1.7-2.04-3.37-4.08-5.03-6.16-.48-.54-.68-1.16-.65-1.77.03-.82.31-1.43.75-1.84.48-.38,1.12-.54,2.01-.51,1.36.07,2.11.95,2.25,2.62.82.03,1.67.07,2.48.1l.03-.03c-.07-3.33-1.67-5.04-4.76-5.21Z"/>
      <path d="M246.59,264.74c1.63.07,3.3.14,4.97.2-.24,6.64-.44,13.24-.68,19.87l.03-.03c1.7.07,3.43.14,5.14.17.17-6.64.37-13.24.54-19.87,1.63.07,3.3.1,4.97.14.03-.82.07-1.67.07-2.48-5-.1-9.97-.27-14.93-.48-.03.82-.1,1.67-.1,2.48Z"/>
      <path d="M272.54,267.83h-.1s0,.02,0,.03l.1-.03Z"/>
      <path d="M274.95,282.57c.03-1.56,1.67-3.71,4.93-6.46.14-.1.24-.21.34-.31,3.27-2.76,4.83-5,4.83-6.7v-1.26c0-1.33-.51-2.48-1.5-3.47-.99-.99-2.14-1.46-3.5-1.46h-5c-2.93,0-4.63,1.63-5.03,4.93h2.42c.11-1.61.96-2.42,2.48-2.42h2.52c.68,0,1.26.24,1.77.71.48.48.75,1.05.75,1.74v1.26c.03,1.7-1.6,3.95-4.86,6.67-.1.1-.24.2-.34.31-3.3,2.75-4.97,4.97-4.97,6.67v2.48c5.14.03,10.24.03,15.37,0v-2.48h-10.2v-.2Z"/>
      <path d="M301.28,263.99h-.03c-.99-.95-2.18-1.4-3.54-1.36-1.67.03-3.33.07-5,.1-1.36,0-2.52.54-3.47,1.53-.95.99-1.43,2.14-1.39,3.54.06,4.15.1,8.3.17,12.45,0,1.33.51,2.52,1.53,3.47,1.02.96,2.28,1.4,3.64,1.4,1.7,0,3.43-.07,5.13-.1,1.43-.04,2.59-.55,3.57-1.57.96-1.02,1.43-2.18,1.4-3.54-.14-4.15-.27-8.3-.41-12.45-.03-1.33-.58-2.48-1.6-3.47ZM298.15,280.05c0,.64-.2,1.26-.68,1.73-.51.51-1.09.79-1.8.79s-1.29-.14-1.7-.48c-.44-.34-.72-.85-.85-1.57-.07-1.46-.1-2.92-.17-4.38-.07-2.83-.1-5.65-.17-8.44,0-.68.2-1.26.71-1.77s1.09-.75,1.77-.75c1.26,0,2.11.61,2.48,1.97.07,1.47.11,2.96.17,4.43.07,2.82.14,5.64.24,8.43v.04Z"/>
      <path d="M311.18,282.06v-.2c-.07-1.6,1.5-3.81,4.63-6.7.1-.1.2-.2.31-.31,3.13-2.93,4.63-5.24,4.52-6.94-.03-.41-.07-.85-.07-1.26-.1-1.33-.61-2.48-1.67-3.4-1.02-.92-2.24-1.36-3.57-1.29-1.67.1-3.33.17-5,.24-2.93.14-4.52,1.84-4.8,5.17.85-.03,1.67-.1,2.52-.1h-.07c.07-1.67.85-2.52,2.38-2.59.85-.03,1.67-.07,2.52-.1.68-.03,1.29.17,1.8.65.54.44.85,1.02.85,1.7.03.41.07.85.07,1.26.1,1.74-1.43,4.01-4.56,6.91-.14.1-.24.2-.34.31-3.13,2.86-4.69,5.17-4.63,6.87.03.82.1,1.67.1,2.48,5.1-.2,10.24-.44,15.34-.72-.03-.82-.1-1.67-.14-2.48-3.4.21-6.8.38-10.2.51Z"/>
      <path d="M338.29,272.9c-.82.07-1.67.14-2.52.21-.34-4.12-.65-8.27-.95-12.39-1.67.14-3.3.27-4.97.38-3.02,4.35-6.12,8.71-9.25,13.03.04.82.1,1.67.14,2.48,3.36-.2,6.77-.41,10.13-.64.17,2.48.34,4.96.51,7.45h.04c1.7-.14,3.4-.24,5.1-.38-.2-2.48-.41-4.96-.58-7.45.85-.07,1.7-.13,2.55-.2-.07-.82-.13-1.67-.2-2.49ZM330.7,273.55c-2.55.17-5.06.34-7.58.48,2.35-3.27,4.66-6.54,6.94-9.8.23,3.09.44,6.19.64,9.29v.03Z"/>
    </g>
  </g>
</svg>